<?xml version="1.0" encoding="UTF-8"?><svg id="Layer_2" xmlns="http://www.w3.org/2000/svg" xmlns:xlink="http://www.w3.org/1999/xlink" viewBox="0 0 208.458 208.458"><defs><linearGradient id="linear-gradient" x1="23.554" y1="138.29" x2="160.49" y2="138.29" gradientUnits="userSpaceOnUse"><stop offset="0" stop-color="#2d59a6"/><stop offset=".186" stop-color="#254f9d"/><stop offset=".493" stop-color="#123684"/><stop offset=".589" stop-color="#0c2d7c"/><stop offset="1" stop-color="#001a65"/></linearGradient></defs><g id="Layer_1-2"><circle cx="104.229" cy="104.229" r="102.729" fill="#fff" stroke="#4c6faf" stroke-miterlimit="10" stroke-width="3"/><path d="M104.617,57.341c1.675-.606,2.283-2.048,2.088-3.337-.219-1.449-1.636-2.332-3.102-2.327-1.517.005-2.411,1.105-2.771,2.244-.456,1.442.636,2.553,1.637,3.398.175,3.248.134,6.474.011,9.831-1.618-1.74-2.921-3.351-4.088-5.114.129-.784.219-1.828-.176-2.479-.42-.691-1.54-.861-2.365-1.102-4.063-3.273-6.1-8.338-6.075-13.644.026-5.676,2.177-10.911,5.688-15.26,2.102-2.603,6.795-7.247,10.356-5.214,10.207,5.828,16.784,22.229,7.254,32.497-.439.473-.984,1.188-1.366,1.65-.886.097-1.748.261-2.282.75-.733.671-.506,1.834-.446,2.663l-4.336,5.524-.024-10.082Z" fill="#2f5baa"/><path d="M89.786,67.088l9.82,3.184-5.99,1.976c-.774-.602-1.571-1.008-2.64-.739-.637.16-1.263,1.076-1.691,1.798-9.385,4.495-19.617,2.638-25.485-6.43-2.287-3.534-3.666-7.359-4.635-11.577,1.394-1.32,2.849-2.231,4.448-3.142,6.137-3.495,13.728-5.69,20.453-2.456,4.875,2.344,6.983,5.194,10.346,9.174-.531.954-.686,1.801-.423,2.77.271.999,1.618.899,2.33,1.528,1.644,1.451,2.84,3.354,4.308,5.293l-9.99-3.152c-.003-1.256-.46-2.377-1.326-2.847-1.136-.618-2.425-.473-3.228.086-1.118.779-1.483,2.128-.99,3.375.333.843,1.037,1.529,1.669,1.791.902.374,2.172.079,3.023-.631Z" fill="#1a4193"/><path d="M107.401,70.277l10.264-3.347c.941.682,2.116,1.253,3.259.671,1.083-.551,1.795-1.683,1.628-3.093-.195-1.649-1.638-2.532-3.143-2.443-1.609.094-2.45,1.417-2.667,3.102-3.151,1.104-6.593,2.186-9.825,2.982,1.283-1.997,2.443-3.682,3.901-5.09.423-.409,1.886-.285,2.153-.829.428-.87.442-1.814.054-2.787,2.027-3.337,4.687-6.434,8.073-8.65,8.822-5.774,19.175-1.008,27.144,4.371-2.405,11.42-9.766,21.503-22.668,20.41-2.581-.219-5.255-.936-7.7-1.741-.346-.932-.888-1.833-1.553-2.13-1.052-.471-1.952-.048-2.774.569l-6.149-1.994Z" fill="#2e59a9"/><path d="M118.127,104.489c-5.972-1.504-10.482-5.598-12.471-11.315-.81-2.328-1.51-4.891-1.346-7.357.658-.555,1.503-1.285,1.609-1.948.161-1.004-.467-1.779-1.226-2.366l-.007-8.376,6.369,8.066c-.804,1.303-.487,2.752.51,3.687,1.057.99,2.786,1.038,3.796.243,1.255-.989,1.551-2.552.993-3.779-.698-1.534-2.272-1.631-3.771-1.635l-6.02-7.635,6.596,2.252c.342.79.929,1.815,1.617,1.939,1.088.196,1.93-.143,2.628-1.182,2.499.691,5.061,1.38,7.365,2.833,5.889,3.713,9.293,10.113,9.399,17.091.042,2.788-.499,5.363-1.278,7.997-.306,1.034-1.188,1.692-2.252,1.933-4.159.944-8.242.628-12.512-.447Z" fill="#2d56a9"/><path d="M100.956,93.916c-3.887,9.485-14.527,12.584-23.806,11.023-1.378-.232-2.245-.844-2.699-2.08-3.473-9.456-.401-20.532,8.732-25.493,2-1.086,4.393-1.79,6.479-2.256.729.737,1.612,1.167,2.464,1.247,1.243.117,1.175-1.475,1.944-1.89,1.951-1.053,4.197-1.577,6.445-2.278l-5.578,7.547c-1.327-.128-2.862-.054-3.544,1.159-.734,1.305-.592,2.874.38,3.837,1.082,1.072,2.615,1.005,3.751.313,1.371-.835,1.48-2.47,1.03-3.947,1.809-2.768,3.869-5.283,6.014-7.924l-.016,8.209c-.77.595-1.437,1.345-1.389,2.189.059,1.026.795,1.691,1.921,2.21-.375,2.682-1.054,5.514-2.128,8.134Z" fill="#10327f"/><path d="M154.305,168.08c-.367.731-1.646.833-2.289.536-.816-.377-1.028-1.096-1.028-2.209l-.005-75.173c0-1.097.855-1.774,1.688-1.847.809-.071,1.905.67,1.905,1.857l.02,73.61c.219,1.169.212,2.224-.291,3.226Z" fill="#2e59a9"/><polygon points="176.944 102.533 156.317 112.888 156.315 92.245 176.944 102.533" fill="#10327f"/><path d="M55.797,123.179c4.777,1.47,8.975,7.528,11.194,11.656-1.061-6.51-2.774-13.846-3.283-20.431,2.503,9.582,4.833,19.285,4.918,29.345-2.446-7.947-6.832-15.726-12.829-20.57ZM160.49,184.621c-26.337-10.801-59.053-12.241-85.381-10.16,20.057-11.25,51.897-19.863,75.143-20.152.19-1.183.224-2.259-.004-3.294-26.809.741-53.922,7.039-76.949,20.968.283-20.072,21.607-26.12,38.315-28.938-3.603-1.776-7.357-2.995-11.081-3.799,7.798-3.286,15.729-9.857,22.814-14.389-19.425-1.69-40.023,7.953-46.415,27.096,8.215-11.036,20.137-19.592,33.935-21.772-15.149,4.228-27.896,13.879-36.445,27.042,1.91-25.294,37.061-36.45,29.412-65.266-1.135,13.239-7.298,25.203-16.864,34.325-11.887,11.195-16.184,24.76-16.76,41.012-.37-21.477,6.178-46.704-7.942-65.276-1.703,5.241-2.107,11.368-2.287,16.89-3.654-12.803-14.561-23.081-27.789-25.492,6.555,8.704,10.396,19.709,18.26,27.235-3.669-.79-7.443-.951-11.218.647,14.571,6.853,28.335,17.259,29.858,34.53-4.999-18.287-28.102-32.858-45.536-20.744,5.653.39,10.571,3.26,16,4.158,8.789-.975,19.406,0,23.989,8.78-8.161-9.126-23.411-10.983-33.06-3.059,22.881,2.285,39.369,2.346,39.354,30.463-7.89,1.575-16.679,3.418-23.869,7.185" fill="url(#linear-gradient)"/><path d="M181.51,156.536c-8.677-1.774-17.126-2.469-25.869-2.552l-.011-2.674c9.972.215,19.933,1.914,29.273,5.765-1.182.182-2.129-.28-3.394-.539Z" fill="#001c68"/></g></svg>