<?xml version="1.0" encoding="UTF-8"?>
<svg id="Layer_1" xmlns="http://www.w3.org/2000/svg" version="1.1" xmlns:xlink="http://www.w3.org/1999/xlink" viewBox="0 0 600 200">
  <!-- Generator: Adobe Illustrator 30.1.0, SVG Export Plug-In . SVG Version: 2.1.1 Build 136)  -->
  <defs>
    <style>
      .st0 {
        fill: #001c68;
      }

      .st1 {
        fill: #2e59a9;
      }

      .st2 {
        fill: #2d56a9;
      }

      .st3 {
        fill: none;
        stroke: #4c6faf;
        stroke-miterlimit: 10;
        stroke-width: 3px;
      }

      .st4 {
        opacity: .8;
      }

      .st4, .st5 {
        fill: #2f5baa;
      }

      .st6 {
        fill: #10327f;
      }

      .st7 {
        fill: #1a4193;
      }

      .st8 {
        fill: url(#linear-gradient);
      }
    </style>
    <linearGradient id="linear-gradient" x1="30.9" y1="128.1" x2="135.6" y2="128.1" gradientUnits="userSpaceOnUse">
      <stop offset="0" stop-color="#2d59a6"/>
      <stop offset=".2" stop-color="#254f9d"/>
      <stop offset=".5" stop-color="#123684"/>
      <stop offset=".6" stop-color="#0c2d7c"/>
      <stop offset="1" stop-color="#001a65"/>
    </linearGradient>
  </defs>
  <g>
    <circle class="st3" cx="92.6" cy="102" r="78.6"/>
    <g>
      <g>
        <path class="st5" d="M92.9,66.2c1.3-.5,1.7-1.6,1.6-2.6s-1.3-1.8-2.4-1.8-1.8.8-2.1,1.7.5,2,1.3,2.6c.1,2.5.1,5,0,7.5-1.2-1.3-2.2-2.6-3.1-3.9,0-.6.2-1.4-.1-1.9s-1.2-.7-1.8-.8c-3.1-2.5-4.7-6.4-4.6-10.4s1.7-8.3,4.3-11.7,5.2-5.5,7.9-4c7.8,4.5,12.8,17,5.5,24.9s-.8.9-1,1.3c-.7,0-1.3.2-1.7.6s-.4,1.4-.3,2l-3.3,4.2v-7.7Z"/>
        <path class="st7" d="M81.6,73.6l7.5,2.4-4.6,1.5c-.6-.5-1.2-.8-2-.6s-1,.8-1.3,1.4c-7.2,3.4-15,2-19.5-4.9s-2.8-5.6-3.5-8.9c1.1-1,2.2-1.7,3.4-2.4,4.7-2.7,10.5-4.4,15.6-1.9s5.3,4,7.9,7c-.4.7-.5,1.4-.3,2.1s1.2.7,1.8,1.2c1.3,1.1,2.2,2.6,3.3,4l-7.6-2.4c0-1-.4-1.8-1-2.2s-1.9-.4-2.5,0-1.1,1.6-.8,2.6.8,1.2,1.3,1.4c.7.3,1.7,0,2.3-.5Z"/>
        <path class="st1" d="M95,76.1l7.8-2.6c.7.5,1.6,1,2.5.5s1.4-1.3,1.2-2.4-1.3-1.9-2.4-1.9-1.9,1.1-2,2.4c-2.4.8-5,1.7-7.5,2.3,1-1.5,1.9-2.8,3-3.9s1.4-.2,1.6-.6c.3-.7.3-1.4,0-2.1,1.5-2.6,3.6-4.9,6.2-6.6,6.7-4.4,14.7-.8,20.8,3.3-1.8,8.7-7.5,16.4-17.3,15.6s-4-.7-5.9-1.3c-.3-.7-.7-1.4-1.2-1.6-.8-.4-1.5,0-2.1.4l-4.7-1.5Z"/>
        <path class="st2" d="M103.2,102.2c-4.6-1.2-8-4.3-9.5-8.7s-1.2-3.7-1-5.6c.5-.4,1.1-1,1.2-1.5.1-.8-.4-1.4-.9-1.8v-6.4s4.9,6.2,4.9,6.2c-.6,1-.4,2.1.4,2.8s2.1.8,2.9.2,1.2-2,.8-2.9-1.7-1.2-2.9-1.2l-4.6-5.8,5,1.7c.3.6.7,1.4,1.2,1.5.8.2,1.5-.1,2-.9,1.9.5,3.9,1.1,5.6,2.2,4.5,2.8,7.1,7.7,7.2,13.1,0,2.1-.4,4.1-1,6.1s-.9,1.3-1.7,1.5c-3.2.7-6.3.5-9.6-.3Z"/>
        <path class="st6" d="M90.1,94.2c-3,7.3-11.1,9.6-18.2,8.4-1.1-.2-1.7-.6-2.1-1.6-2.7-7.2-.3-15.7,6.7-19.5s3.4-1.4,5-1.7c.6.6,1.2.9,1.9,1,1,0,.9-1.1,1.5-1.4,1.5-.8,3.2-1.2,4.9-1.7l-4.3,5.8c-1,0-2.2,0-2.7.9s-.5,2.2.3,2.9,2,.8,2.9.2,1.1-1.9.8-3c1.4-2.1,3-4,4.6-6.1v6.3c-.6.5-1.1,1-1.1,1.7s.6,1.3,1.5,1.7c-.3,2.1-.8,4.2-1.6,6.2Z"/>
      </g>
      <g>
        <path class="st1" d="M130.9,150.9c-.3.6-1.3.6-1.8.4s-.8-.8-.8-1.7v-57.5c0-.8.7-1.4,1.3-1.4s1.5.5,1.5,1.4v56.3c.2.9.2,1.7-.2,2.5Z"/>
        <polygon class="st6" points="148.2 100.7 132.4 108.7 132.4 92.9 148.2 100.7"/>
      </g>
      <g>
        <path class="st8" d="M55.6,116.5c3.7,1.1,6.9,5.8,8.6,8.9-.8-5-2.1-10.6-2.5-15.6,1.9,7.3,3.7,14.7,3.8,22.4-1.9-6.1-5.2-12-9.8-15.7ZM135.6,163.5c-20.1-8.3-45.2-9.4-65.3-7.8,15.3-8.6,39.7-15.2,57.5-15.4.1-.9.2-1.7,0-2.5-20.5.6-41.2,5.4-58.8,16,.2-15.4,16.5-20,29.3-22.1-2.8-1.4-5.6-2.3-8.5-2.9,6-2.5,12-7.5,17.4-11-14.9-1.3-30.6,6.1-35.5,20.7,6.3-8.4,15.4-15,26-16.6-11.6,3.2-21.3,10.6-27.9,20.7,1.5-19.3,28.3-27.9,22.5-49.9-.9,10.1-5.6,19.3-12.9,26.2-9.1,8.6-12.4,18.9-12.8,31.4-.3-16.4,4.7-35.7-6.1-49.9-1.3,4-1.6,8.7-1.7,12.9-2.8-9.8-11.1-17.7-21.3-19.5,5,6.7,8,15.1,14,20.8-2.8-.6-5.7-.7-8.6.5,11.1,5.2,21.7,13.2,22.8,26.4-3.8-14-21.5-25.1-34.8-15.9,4.3.3,8.1,2.5,12.2,3.2,6.7-.7,14.8,0,18.3,6.7-6.2-7-17.9-8.4-25.3-2.3,17.5,1.7,30.1,1.8,30.1,23.3-6,1.2-12.8,2.6-18.3,5.5"/>
        <path class="st0" d="M151.7,142c-6.6-1.4-13.1-1.9-19.8-2v-2c7.6.2,15.2,1.5,22.4,4.4-.9.1-1.6-.2-2.6-.4Z"/>
      </g>
    </g>
  </g>
  <g>
    <path class="st6" d="M267.8,60.2c-.2,1.8-.3,3.5-.4,5.2,0,1.7-.1,2.9-.1,3.8s0,2.2,0,3.2c0,1,0,1.8.1,2.6h-1.6c-.3-3.3-.8-5.9-1.3-7.8s-1.5-3.3-2.9-4.1-3.6-1.3-6.5-1.3h-3.8v39.9c0,1.9.2,3.3.5,4.2.4.9,1,1.6,2.1,1.9,1,.3,2.5.5,4.5.6v1.4c-1.2,0-2.8-.2-4.6-.2-1.9,0-3.8,0-5.7,0s-4.1,0-5.9,0c-1.8,0-3.3,0-4.5.2v-1.4c2,0,3.5-.3,4.5-.6,1-.3,1.7-1,2.1-1.9.4-.9.5-2.3.5-4.2v-39.9h-3.8c-2.9,0-5.1.4-6.5,1.3-1.4.8-2.4,2.2-3,4.1-.6,1.9-1,4.5-1.3,7.8h-1.6c0-.7.2-1.6.2-2.6,0-1,0-2,0-3.2s0-2.2-.1-3.8c0-1.7-.2-3.4-.4-5.2,2,0,4.1,0,6.4.1,2.3,0,4.6,0,7,0h12.7c2.3,0,4.6,0,7,0,2.3,0,4.5,0,6.4-.1Z"/>
    <path class="st6" d="M281,54.9v26.2c1.2-3.2,2.9-5.4,5.1-6.6,2.2-1.2,4.5-1.8,6.8-1.8s3.3.2,4.5.7c1.2.5,2.2,1.1,3,2,.9.9,1.5,2.1,1.9,3.5.4,1.4.6,3.3.6,5.7v18.7c0,2,.4,3.3,1.2,4,.8.7,2.2,1.1,4.1,1.1v1.5c-.8,0-2-.1-3.6-.2-1.6,0-3.2-.1-4.8-.1s-3.1,0-4.5.1c-1.5,0-2.6.1-3.3.2v-1.5c1.7,0,2.9-.4,3.6-1.1.7-.7,1.1-2,1.1-4v-20.3c0-1.4-.1-2.8-.4-4-.2-1.2-.8-2.2-1.6-2.9-.8-.7-2.1-1.1-3.8-1.1s-3.6.5-5.1,1.6c-1.5,1.1-2.6,2.6-3.5,4.5-.8,1.9-1.3,4.1-1.3,6.6v15.6c0,2,.4,3.3,1.1,4,.7.7,1.9,1.1,3.6,1.1v1.5c-.7,0-1.9-.1-3.3-.2-1.5,0-3-.1-4.5-.1s-3.1,0-4.8.1c-1.6,0-2.9.1-3.6.2v-1.5c1.9,0,3.3-.4,4.1-1.1.8-.7,1.2-2,1.2-4v-40c0-2.1-.4-3.7-1.1-4.7-.7-1-2.2-1.5-4.2-1.5v-1.5c1.5.1,2.9.2,4.3.2s2.7,0,3.9-.2c1.2-.2,2.4-.4,3.4-.7Z"/>
    <path class="st6" d="M326,72.7c4.1,0,7.3,1.3,9.6,3.8,2.3,2.5,3.5,6.4,3.5,11.7h-24.8v-1.3c0,0,18,0,18,0,0-2.3,0-4.4-.6-6.3-.5-1.9-1.2-3.5-2.2-4.7-1-1.2-2.3-1.8-3.9-1.8s-4.1,1.1-5.7,3.2c-1.7,2.2-2.7,5.6-3,10.2l.2.3c0,.7-.2,1.5-.2,2.3,0,.8,0,1.7,0,2.5,0,3.2.5,5.9,1.5,8.2,1,2.3,2.4,4,4,5.2s3.4,1.8,5.2,1.8,2.7-.2,4-.7c1.3-.4,2.4-1.2,3.5-2.2,1.1-1,2-2.4,2.8-4.1l1.4.6c-.5,1.5-1.4,3-2.5,4.5-1.2,1.5-2.6,2.6-4.4,3.5s-3.8,1.4-6.2,1.4c-3.4,0-6.3-.8-8.7-2.3-2.4-1.5-4.3-3.7-5.5-6.4-1.3-2.7-1.9-5.9-1.9-9.4s.7-7.7,2-10.6c1.3-3,3.2-5.3,5.5-6.9,2.4-1.6,5.2-2.4,8.3-2.4Z"/>
    <path class="st6" d="M407.3,60.2v1.4c-1.6,0-2.8.3-3.6.7-.8.4-1.4,1.1-1.6,2-.3.9-.4,2.3-.4,4v41.9h-1.6l-29.5-45.5v37c0,1.7.2,3,.5,4,.3,1,.9,1.6,1.8,2,.9.4,2.3.6,4.1.7v1.4c-.8,0-1.9-.2-3.3-.2-1.4,0-2.6,0-3.9,0s-2.3,0-3.5,0c-1.2,0-2.2,0-3,.2v-1.4c1.6,0,2.8-.3,3.6-.7.8-.4,1.4-1.1,1.6-2,.3-1,.4-2.3.4-4v-34.1c0-1.7-.1-3-.4-3.8-.3-.8-.8-1.4-1.6-1.7-.8-.3-2-.5-3.6-.5v-1.4c.8,0,1.8,0,3,.1,1.2,0,2.4,0,3.5,0s2,0,2.9,0c.9,0,1.8,0,2.5-.1l24.8,38.2v-30c0-1.7-.2-3.1-.5-4-.3-.9-.9-1.6-1.8-2-.9-.4-2.3-.7-4.1-.7v-1.4c.8,0,2,0,3.3.1,1.4,0,2.7,0,3.8,0s2.4,0,3.6,0c1.2,0,2.2,0,2.9-.1Z"/>
    <path class="st6" d="M426.7,72.7c3,0,5.7.7,8.1,2,2.4,1.3,4.3,3.4,5.7,6.2,1.4,2.8,2.1,6.5,2.1,10.9s-.7,8.1-2.1,10.9c-1.4,2.8-3.3,4.8-5.7,6.1s-5.1,2-8.1,2-5.6-.7-8-2c-2.4-1.3-4.3-3.4-5.8-6.1-1.4-2.8-2.1-6.4-2.1-10.9s.7-8.1,2.1-10.9c1.4-2.8,3.3-4.9,5.8-6.2,2.4-1.3,5.1-2,8-2ZM426.7,74.1c-2.7,0-4.9,1.4-6.6,4.1-1.7,2.8-2.6,7.3-2.6,13.5s.9,10.8,2.6,13.5,3.9,4.1,6.6,4.1,4.9-1.4,6.6-4.1c1.7-2.7,2.6-7.2,2.6-13.5s-.9-10.8-2.6-13.5c-1.7-2.8-3.9-4.1-6.6-4.1Z"/>
    <path class="st6" d="M456.7,62.1v11.7h10.4v1.4h-10.4v27.1c0,2.2.4,3.7,1.2,4.6.8.9,1.9,1.3,3.3,1.3s2.6-.6,3.6-1.7c1-1.1,1.9-3.1,2.7-5.8l1.4.4c-.5,2.7-1.4,5-2.8,6.9-1.4,1.9-3.5,2.8-6.3,2.8s-2.9-.2-3.9-.6c-1-.4-1.9-1-2.7-1.7-1-1.1-1.7-2.4-2.1-3.9-.4-1.5-.6-3.5-.6-6v-23.5h-6.7v-1.4h6.7v-10.7c1.2,0,2.3-.1,3.4-.3,1.1-.1,2.1-.4,2.9-.7Z"/>
    <path class="st6" d="M482.2,54.8v48.5c0,2,.4,3.3,1.2,4,.8.7,2.2,1.1,4.1,1.1v1.5c-.8,0-2-.1-3.6-.2-1.6,0-3.2-.1-4.9-.1s-3.2,0-4.8.1c-1.6,0-2.9.1-3.6.2v-1.5c1.9,0,3.3-.4,4.1-1.1s1.2-2,1.2-4v-40.1c0-2.1-.4-3.7-1.1-4.7-.7-1-2.2-1.5-4.2-1.5v-1.5c1.5.1,2.9.2,4.3.2s2.7,0,3.9-.2c1.2-.2,2.4-.4,3.4-.7Z"/>
    <path class="st6" d="M505.9,72.7c4.1,0,7.3,1.3,9.6,3.8,2.3,2.5,3.5,6.4,3.5,11.7h-24.8v-1.3c0,0,18,0,18,0,0-2.3,0-4.4-.6-6.3-.5-1.9-1.2-3.5-2.2-4.7-1-1.2-2.3-1.8-3.9-1.8s-4.1,1.1-5.7,3.2c-1.7,2.2-2.7,5.6-3,10.2l.2.3c0,.7-.2,1.5-.2,2.3,0,.8,0,1.7,0,2.5,0,3.2.5,5.9,1.5,8.2,1,2.3,2.4,4,4,5.2s3.4,1.8,5.2,1.8,2.7-.2,4-.7c1.3-.4,2.4-1.2,3.5-2.2,1.1-1,2-2.4,2.8-4.1l1.4.6c-.5,1.5-1.4,3-2.5,4.5-1.2,1.5-2.6,2.6-4.4,3.5s-3.8,1.4-6.2,1.4c-3.4,0-6.3-.8-8.7-2.3-2.4-1.5-4.3-3.7-5.5-6.4-1.3-2.7-1.9-5.9-1.9-9.4s.7-7.7,2-10.6c1.3-3,3.2-5.3,5.5-6.9,2.4-1.6,5.2-2.4,8.3-2.4Z"/>
    <path class="st6" d="M555.7,73.7v1.4c-.9,0-1.7.5-2.5,1.2s-1.5,1.9-2.1,3.7l-11.5,30.2h-1.2l-12.9-31.1c-.9-1.8-1.8-2.9-2.6-3.3-.9-.4-1.6-.6-2.1-.6v-1.5c1,.1,2.1.2,3.2.3s2.3.1,3.6.1,3,0,4.6-.1c1.6,0,3.1-.2,4.5-.3v1.5c-1.2,0-2.2,0-3.1.2-.9.2-1.5.7-1.7,1.5-.2.8,0,2.2.8,4.2l8.6,21.4h-.4c0,.1,8-20.8,8-20.8.6-1.5.9-2.8.7-3.7-.1-.9-.6-1.6-1.4-2.1-.8-.5-2.1-.7-3.8-.8v-1.4c.8,0,1.6,0,2.2.1.6,0,1.2,0,1.8,0,.6,0,1.2,0,1.9,0,1.1,0,2,0,2.9,0,.9,0,1.7,0,2.4-.1ZM539.7,110.2l-2.4,6.1c-.5,1.2-.9,2.2-1.4,2.9-.5.8-1,1.4-1.6,2-.7.7-1.6,1.2-2.7,1.4-1,.3-2,.4-2.8.4s-1.7-.2-2.4-.5c-.7-.3-1.3-.8-1.7-1.4-.4-.6-.6-1.4-.6-2.3s.3-2,1-2.7c.7-.7,1.6-1,2.7-1s1.8.3,2.5.8c.7.6,1.1,1.4,1.1,2.5s-.2,1.4-.6,2c-.4.5-.8.9-1.3,1.2,0,0,.2,0,.2,0h.2c1.3,0,2.4-.4,3.4-1.3,1-.9,1.8-2.3,2.6-4.2l2.5-6.5,1.3.6Z"/>
    <path class="st6" d="M569.9,72.7c1.9,0,3.5.3,4.8.9,1.3.6,2.3,1.2,2.9,1.7,1.5,1.3,2.5.4,2.8-2.5h1.6c0,1.3-.2,2.9-.2,4.7,0,1.8,0,4.2,0,7.3h-1.6c-.3-1.7-.8-3.4-1.4-5.1-.7-1.6-1.7-3-3-4-1.3-1.1-3-1.6-5.1-1.6s-3,.5-4.1,1.4c-1.1.9-1.6,2.3-1.6,4s.4,2.6,1.3,3.6c.8,1,1.9,1.9,3.3,2.8,1.4.9,2.8,1.8,4.4,2.8,1.8,1.1,3.4,2.3,4.8,3.4,1.4,1.2,2.6,2.5,3.5,3.9.9,1.4,1.3,3.1,1.3,5s-.6,4-1.7,5.4c-1.1,1.5-2.6,2.5-4.4,3.3-1.8.7-3.8,1.1-5.9,1.1s-2,0-2.9-.2c-.9-.2-1.8-.4-2.6-.7-.5-.2-.9-.5-1.4-.8-.5-.3-1-.7-1.4-1.1-.5-.4-.9-.4-1.3,0-.4.4-.7,1.2-.8,2.4h-1.6c0-1.5.2-3.3.2-5.5,0-2.2,0-5,0-8.6h1.6c.3,2.6.8,4.9,1.4,6.9.6,2,1.6,3.5,2.9,4.6,1.3,1.1,3.1,1.6,5.5,1.6s1.9-.2,2.8-.6c1-.4,1.8-1.1,2.4-2.1.7-1,1-2.3,1-3.9s-.7-3.7-2.2-5.1c-1.5-1.3-3.4-2.7-5.7-4.1-1.7-1.1-3.3-2.2-4.7-3.2-1.5-1.1-2.7-2.3-3.6-3.6-.9-1.4-1.4-3-1.4-4.9s.5-3.8,1.4-5.2c1-1.3,2.2-2.3,3.8-2.9s3.3-.9,5.1-.9Z"/>
    <path class="st4" d="M262.2,161.8h-2.4c-.2-.4-.3-2.4-.4-6-1.4,2.6-4.3,6.5-12.2,6.5s-16.4-8.3-16.4-19,5.9-19.8,17-19.8,13.6,4.3,14.7,11.2h-2.9c-1.6-5.3-5.3-8.5-11.9-8.5-9.5,0-13.8,7.3-13.8,16.9s4.2,16.5,13.4,16.5,12.1-6.2,12.1-14.5v-.4h-12.2v-2.7h15v19.9Z"/>
    <path class="st4" d="M298.8,148.3c0,7.5-4.2,14.2-12.2,14.2s-11.8-6-11.8-14.1,4.3-14.1,12.1-14.1,11.9,5.6,11.9,14.1ZM277.6,148.3c0,6.4,3.5,11.6,9.2,11.6s9.1-4.8,9.1-11.6-3.2-11.6-9.2-11.6-9.1,5.1-9.1,11.6Z"/>
    <path class="st4" d="M311.2,161.8v-39.8h2.7v39.8h-2.7Z"/>
    <path class="st4" d="M329.8,161.8v-24.5h-4.6v-2.5h4.6v-3.8c0-4.5,1.3-9.5,7.3-9.5s2,.2,2.6.4v2.6c-.8-.2-2.1-.3-2.9-.3-3.2,0-4.4,2.3-4.4,7v3.7h5.9v2.5h-5.9v24.5h-2.7Z"/>
    <path class="st4" d="M397.6,151.7c-1.8,6-6.2,10.5-14.2,10.5s-16.6-8.6-16.6-19.3,5.6-19.5,16.6-19.5,13,4.5,14.2,10.9h-2.9c-1.7-4.9-4.9-8.2-11.4-8.2-9.4,0-13.3,8.6-13.3,16.7s3.9,16.6,13.6,16.6,9.3-3.2,11.2-7.8h2.9Z"/>
    <path class="st4" d="M410.3,161.8v-39.8h2.7v39.8h-2.7Z"/>
    <path class="st4" d="M447.8,153.9c0,2.6,0,6.9,0,7.9h-2.6c-.1-.7-.2-2.5-.2-4.7-1.1,3.2-3.9,5.3-8.7,5.3s-8.9-1.5-8.9-9.8v-17.9h2.6v17.2c0,3.9,1.2,7.8,6.6,7.8s8.3-3.4,8.3-11.1v-13.9h2.7v19.1Z"/>
    <path class="st4" d="M462.4,122h2.7v17.3c1.3-2.7,3.9-5.2,9.2-5.2s11.1,5.2,11.1,13.6-4.2,14.7-11.8,14.7-7.1-1.8-8.5-4.9c0,1.7,0,3.5-.1,4.3h-2.6c0-3.1,0-6.2,0-9.2v-30.6ZM482.5,147.8c0-6.8-3.3-11.1-8.5-11.1s-9.1,4.6-9.1,11.7,2.1,11.6,8.8,11.6,8.8-4.5,8.8-12.2Z"/>
  </g>
</svg>