<svg xmlns="http://www.w3.org/2000/svg" width="512" height="512" viewBox="0 0 512 512" role="img" aria-label="Yellow anemone submark"><style>.rg{fill:#0F3B2E}.dg{fill:#063526}.gold{fill:#D4A536}.cream{fill:#F7F4EC}.flower path{fill:#FFCA28}.flower .centre{fill:#063526}.flower .stamen{stroke:#063526;stroke-width:3;stroke-linecap:round}.word{font-family:Georgia,'Cormorant Garamond','Libre Baskerville',serif;font-weight:600;fill:#0F3B2E}.ui{font-family:Inter,Manrope,Arial,sans-serif;font-weight:700;fill:#0F3B2E}.est{font-family:Inter,Manrope,Arial,sans-serif;font-weight:700;letter-spacing:8px;fill:#D4A536}</style><g transform="translate(256 210) scale(3.2)"><g class="flower"><path d="M0,-34 C13,-28 18,-15 8,-4 C4,1 -4,1 -8,-4 C-18,-15 -13,-28 0,-34Z"/><path d="M32,-10 C28,5 15,12 3,4 C-2,1 -4,-6 0,-10 C10,-22 24,-22 32,-10Z"/><path d="M20,28 C4,30 -6,20 -2,6 C0,1 7,-2 12,2 C25,10 29,22 20,28Z"/><path d="M-20,28 C-29,22 -25,10 -12,2 C-7,-2 0,1 2,6 C6,20 -4,30 -20,28Z"/><path d="M-32,-10 C-24,-22 -10,-22 0,-10 C4,-6 2,1 -3,4 C-15,12 -28,5 -32,-10Z"/><circle cx="0" cy="0" r="5" class="centre"/><path d="M0,-13 L0,13 M-12,-4 L12,4 M-9,9 L9,-9" class="stamen"/></g></g><path d="M258 232 C244 294 238 342 226 404" fill="none" stroke="#0F3B2E" stroke-width="16" stroke-linecap="round"/><path d="M230 335 C182 310 146 304 103 321 C144 342 168 367 186 411 C196 375 212 353 230 335Z" fill="#4D6F3C"/></svg>