<svg width="1600" height="1000" viewBox="0 0 1600 1000" fill="none" xmlns="http://www.w3.org/2000/svg">
  <rect width="1600" height="1000" fill="#8BB0D2"/>
  <rect y="470" width="1600" height="530" fill="#3E604C"/>
  <path d="M0 387L80 357L160 379L240 328L320 350L400 301L480 334L560 292L640 322L720 265L800 300L880 246L960 274L1040 223L1120 252L1200 213L1280 247L1360 208L1440 237L1520 214L1600 229V472H0V387Z" fill="#5B7C64"/>
  <path d="M0 442L96 402L192 426L288 371L384 405L480 350L576 384L672 333L768 363L864 311L960 342L1056 295L1152 327L1248 281L1344 317L1440 272L1536 299L1600 286V502H0V442Z" fill="#6D9478"/>
  <path d="M0 1000V646L134 597L267 635L401 563L534 611L668 543L801 577L935 520L1068 569L1202 502L1335 543L1469 481L1600 517V1000H0Z" fill="#557A62"/>
  <path d="M-14 1000V739L142 689L299 722L456 670L613 705L770 649L926 686L1083 620L1240 664L1397 602L1554 643L1614 630V1000H-14Z" fill="#7DA06D"/>
  <path d="M1103 522C1019 510 973 542 922 596C868 653 822 696 724 735C617 778 460 761 361 732C254 701 199 710 118 759L166 843C219 809 269 804 357 831C511 878 646 866 774 811C882 765 933 704 989 647C1039 596 1076 571 1148 580C1222 590 1297 650 1366 694C1431 735 1518 760 1612 726V631C1540 660 1486 641 1417 597C1346 551 1205 533 1103 522Z" fill="#D8D3B3"/>
  <path d="M0 1000V819C84 768 165 765 258 795C357 828 482 892 617 861C767 826 834 744 906 676C977 609 1048 570 1146 582C1230 593 1299 650 1366 692C1433 734 1507 758 1600 722V1000H0Z" fill="#6A915B"/>
  <path d="M986 581C1032 585 1086 608 1130 646L938 773C889 766 844 738 810 697L986 581Z" fill="#F0EBD0"/>
  <path d="M1370 658L1466 709L1388 742L1294 686L1370 658Z" fill="#F4F0D7"/>
  <path d="M335 692C393 714 436 732 500 738L427 792C374 790 334 777 276 750L335 692Z" fill="#AEC88C"/>
  <path d="M1194 479L1236 653L1210 660L1168 486L1194 479Z" fill="#2E2C26"/>
  <circle cx="1181" cy="470" r="27" fill="#F4F2E3"/>
  <path d="M1280 299C1329 287 1385 291 1452 325" stroke="#DCE8C9" stroke-width="9" stroke-linecap="round"/>
  <path d="M132 608C220 580 269 577 338 603" stroke="#DCE8C9" stroke-width="8" stroke-linecap="round"/>
  <path d="M885 276C927 267 974 268 1030 289" stroke="#D7E6C2" stroke-width="7" stroke-linecap="round"/>
</svg>
